<svg xmlns="http://www.w3.org/2000/svg" viewBox="0 0 1200 630" width="1200" height="630">
  <defs>
    <!-- Banner 1's background gradient -->
    <linearGradient id="bgGrad1" x1="0%" y1="0%" x2="100%" y2="100%">
      <stop offset="0%" style="stop-color:#0D0D0D"/>
      <stop offset="100%" style="stop-color:#1A1A2E"/>
    </linearGradient>
    <linearGradient id="logoGrad" x1="0%" y1="50%" x2="100%" y2="50%">
      <stop offset="0%" style="stop-color:#6B2D8E"/>
      <stop offset="50%" style="stop-color:#9C27B0"/>
      <stop offset="100%" style="stop-color:#E91E8C"/>
    </linearGradient>
    <linearGradient id="lineGrad" x1="0%" y1="0%" x2="100%" y2="0%">
      <stop offset="0%" style="stop-color:#6B2D8E;stop-opacity:0"/>
      <stop offset="50%" style="stop-color:#E91E8C;stop-opacity:0.6"/>
      <stop offset="100%" style="stop-color:#E91E8C;stop-opacity:0"/>
    </linearGradient>
    <filter id="glow">
      <feGaussianBlur stdDeviation="3" result="coloredBlur"/>
      <feMerge>
        <feMergeNode in="coloredBlur"/>
        <feMergeNode in="SourceGraphic"/>
      </feMerge>
    </filter>
    <!-- Banner 1's grid pattern -->
    <pattern id="grid" width="40" height="40" patternUnits="userSpaceOnUse">
      <path d="M 40 0 L 0 0 0 40" fill="none" stroke="rgba(255,255,255,0.03)" stroke-width="1"/>
    </pattern>
  </defs>
  
  <!-- Banner 1 Background -->
  <rect width="1200" height="630" fill="url(#bgGrad1)"/>
  <rect width="1200" height="630" fill="url(#grid)"/>
  
  <!-- Circuit lines from V4 -->
  <g opacity="0.15">
    <line x1="0" y1="100" x2="400" y2="100" stroke="#E91E8C" stroke-width="1"/>
    <line x1="400" y1="100" x2="400" y2="200" stroke="#E91E8C" stroke-width="1"/>
    <line x1="400" y1="200" x2="500" y2="200" stroke="#E91E8C" stroke-width="1"/>
    <circle cx="500" cy="200" r="4" fill="#E91E8C"/>
    
    <line x1="800" y1="50" x2="800" y2="150" stroke="#9C27B0" stroke-width="1"/>
    <line x1="800" y1="150" x2="1000" y2="150" stroke="#9C27B0" stroke-width="1"/>
    <circle cx="1000" cy="150" r="4" fill="#9C27B0"/>
    
    <line x1="1200" y1="400" x2="900" y2="400" stroke="#6B2D8E" stroke-width="1"/>
    <line x1="900" y1="400" x2="900" y2="500" stroke="#6B2D8E" stroke-width="1"/>
    <line x1="900" y1="500" x2="700" y2="500" stroke="#6B2D8E" stroke-width="1"/>
    <circle cx="700" cy="500" r="4" fill="#6B2D8E"/>
    
    <line x1="0" y1="530" x2="300" y2="530" stroke="#E91E8C" stroke-width="1"/>
    <line x1="300" y1="530" x2="300" y2="450" stroke="#E91E8C" stroke-width="1"/>
    <circle cx="300" cy="450" r="4" fill="#E91E8C"/>
  </g>
  
  <!-- Floating nodes -->
  <g filter="url(#glow)">
    <circle cx="150" cy="200" r="3" fill="#E91E8C" opacity="0.6"/>
    <circle cx="1050" cy="430" r="3" fill="#9C27B0" opacity="0.6"/>
    <circle cx="200" cy="450" r="2" fill="#6B2D8E" opacity="0.5"/>
    <circle cx="1000" cy="250" r="2" fill="#E91E8C" opacity="0.5"/>
  </g>
  
  <!-- Central content area with subtle border -->
  <rect x="100" y="140" width="1000" height="350" rx="12" fill="rgba(255,255,255,0.02)" stroke="url(#logoGrad)" stroke-width="1" opacity="0.5"/>
  
  <!-- Logo -->
  <g transform="translate(150, 180) scale(0.52)">
    <g transform="translate(0,517) scale(0.1,-0.1)" fill="url(#logoGrad)" stroke="none">
      <path d="M975 4895 c-290 -63 -550 -285 -656 -560 -68 -174 -64 -65 -64 -1785 0 -1469 1 -1560 18 -1640 38 -174 128 -338 255 -464 152 -149 312 -230 520 -261 116 -18 853 -21 967 -5 136 20 234 89 291 206 24 49 30 74 32 151 6 141 -37 278 -134 429 l-36 56 -65 -63 c-36 -35 -78 -81 -94 -103 l-28 -38 24 -42 c40 -70 65 -159 65 -236 l0 -70 -165 0 -165 0 0 39 c0 165 65 278 331 572 147 163 221 295 253 449 19 94 31 407 21 561 l-7 116 -37 -8 c-49 -11 -118 -41 -169 -73 l-40 -25 -5 -243 c-5 -259 -11 -297 -64 -403 -38 -74 -86 -137 -209 -270 -239 -261 -322 -416 -340 -637 l-7 -78 -186 0 c-209 0 -274 11 -373 61 -167 84 -291 241 -339 427 -18 73 -19 125 -19 1586 0 1666 -3 1582 63 1721 62 129 181 246 307 303 117 52 90 51 1703 52 1613 0 1572 1 1694 -51 169 -72 304 -235 354 -426 20 -77 21 -94 19 -1601 -1 -1468 -2 -1526 -20 -1599 -52 -201 -205 -370 -406 -446 l-59 -22 -846 -3 -847 -3 -7 -46 c-10 -70 -42 -148 -81 -198 -19 -25 -34 -47 -34 -50 0 -3 386 -5 858 -5 691 0 877 3 958 15 196 28 398 134 532 279 69 75 157 219 189 308 61 168 58 84 58 1773 0 1464 -1 1555 -18 1635 -39 178 -119 331 -241 458 -103 108 -236 191 -391 243 l-70 24 -1615 2 c-1305 1 -1627 -1 -1675 -12z"/>
      <path d="M1567 4086 c-48 -18 -62 -30 -81 -70 -14 -30 -16 -93 -16 -484 l0 -450 -44 -36 c-95 -77 -128 -220 -76 -329 27 -58 118 -143 168 -157 118 -32 235 4 305 96 97 127 88 266 -25 376 l-58 58 0 370 0 370 203 0 c169 0 217 -3 280 -19 145 -37 222 -92 293 -209 149 -240 240 -320 427 -371 104 -28 144 -50 194 -104 68 -73 78 -100 78 -202 0 -102 -18 -150 -84 -218 -76 -81 -145 -97 -415 -97 -308 0 -530 -42 -717 -135 -127 -63 -171 -95 -274 -199 -104 -105 -158 -194 -206 -336 -44 -132 -52 -295 -20 -420 24 -95 73 -206 123 -277 18 -26 36 -51 40 -57 7 -10 3 -14 111 106 l78 86 -35 64 c-19 34 -42 90 -51 123 -17 67 -20 198 -5 263 26 111 128 260 233 339 179 136 379 183 772 183 192 0 241 3 296 18 248 69 419 295 419 554 0 103 -15 168 -58 257 -72 147 -198 247 -382 301 -143 42 -166 62 -283 241 -136 208 -267 299 -507 355 -95 22 -630 30 -683 10z"/>
      <path d="M2550 4087 c3 -3 34 -26 69 -52 78 -58 95 -74 148 -146 l42 -56 143 -6 c150 -6 209 -18 328 -66 187 -77 337 -209 435 -386 32 -58 85 -204 85 -235 0 -8 -43 -58 -95 -110 -52 -52 -95 -99 -95 -104 0 -5 43 -53 95 -108 66 -69 95 -106 95 -123 0 -34 -46 -160 -83 -225 -114 -204 -323 -372 -527 -425 -106 -27 -114 -24 -214 70 -50 48 -97 85 -108 85 -11 0 -52 -30 -91 -67 -39 -38 -81 -77 -93 -88 -85 -79 -154 -149 -155 -159 -1 -6 -1 -18 1 -26 2 -19 264 -284 308 -311 41 -26 39 -27 194 120 70 66 128 113 145 117 175 38 381 134 494 230 171 144 285 318 360 546 l30 93 124 125 c72 72 125 133 125 144 0 11 -53 73 -124 145 -122 125 -124 127 -151 211 -54 166 -151 333 -260 449 -147 156 -372 281 -599 333 -76 17 -135 21 -361 25 -148 3 -268 3 -265 0z"/>
      <path d="M2152 3473 c-62 -30 -62 -33 -62 -450 l0 -379 103 24 c56 13 112 26 124 28 l23 4 2 263 3 262 175 5 c96 3 169 7 162 8 -25 4 -135 117 -179 185 l-44 67 -137 0 c-106 0 -144 -4 -170 -17z"/>
    </g>
  </g>
  
  <!-- Text -->
  <text x="470" y="280" font-family="system-ui, -apple-system, BlinkMacSystemFont, 'Segoe UI', sans-serif" font-size="64" font-weight="700" fill="#FFFFFF">Plaited</text>
  
  <text x="470" y="330" font-family="system-ui, -apple-system, BlinkMacSystemFont, 'Segoe UI', sans-serif" font-size="18" fill="#E91E8C" letter-spacing="3" font-weight="500">NEURO-SYMBOLIC AGENTIC FRAMEWORK</text>
  
  <!-- Horizontal separator -->
  <rect x="470" y="355" width="500" height="1" fill="url(#lineGrad)"/>
  
  <text x="470" y="395" font-family="system-ui, -apple-system, BlinkMacSystemFont, 'Segoe UI', sans-serif" font-size="16" fill="#AAAAAA">AI-Assisted Design Systems</text>
  <text x="470" y="420" font-family="system-ui, -apple-system, BlinkMacSystemFont, 'Segoe UI', sans-serif" font-size="16" fill="#AAAAAA">Generative UI Agents</text>
  <text x="470" y="445" font-family="system-ui, -apple-system, BlinkMacSystemFont, 'Segoe UI', sans-serif" font-size="16" fill="#AAAAAA">Personalized Knowledge Worker Screens</text>
</svg>
